<svg width="32" height="32" viewBox="0 0 32 32" fill="none" xmlns="http://www.w3.org/2000/svg">
<path d="M25.0232 18.6922L23.0338 28.0481C23.0338 28.4244 22.5564 28.7319 21.7755 28.9729C21.4259 29.0773 21.0707 29.162 20.7117 29.2266C20.1797 29.3264 19.5813 29.4051 18.9437 29.4653C18.6059 29.4985 18.2555 29.5234 17.8985 29.5447C17.3931 29.575 16.8745 29.5943 16.3499 29.6006C16.0038 29.6092 15.6551 29.6092 15.309 29.6026C14.7305 29.5982 14.156 29.5789 13.5992 29.5444C13.2421 29.5228 12.8917 29.4972 12.554 29.465C11.9153 29.4048 11.3172 29.325 10.786 29.2263C10.4269 29.1617 10.0717 29.077 9.72214 28.9726C8.94152 28.7316 8.46383 28.424 8.46383 28.0477L6.47313 18.6921H25.0232V18.6922Z" fill="#0AD9C6"/>
<path d="M16.3492 18.8694V29.601C16.0031 29.6096 15.6544 29.6096 15.3083 29.603V18.8694H16.3492Z" fill="#0B9A8D"/>
<path d="M19.5215 18.8694L18.943 29.464C18.6052 29.4972 18.2548 29.5221 17.8978 29.5434L18.4806 18.8694H19.5215Z" fill="#0B9A8D"/>
<path d="M22.6927 18.8694L21.7745 28.9717C21.4249 29.076 21.0698 29.1608 20.7107 29.2253L21.6529 18.8694H22.6927Z" fill="#0B9A8D"/>
<path d="M13.5985 29.5448C13.2414 29.5232 12.891 29.4976 12.5533 29.4654L11.9745 18.8694H13.0154L13.5985 29.5448Z" fill="#0B9A8D"/>
<path d="M10.7853 29.2267C10.4262 29.1621 10.0711 29.0774 9.72148 28.973L8.80227 18.8694H9.84318L10.7853 29.2267Z" fill="#0B9A8D"/>
<path d="M19.1085 2.34656C19.1085 2.34656 19.7808 4.9543 14.8864 5.86857C9.99204 6.78284 5.6665 10.1163 8.40859 12.0249C8.40859 12.0249 5.88193 12.482 6.06978 14.9552C6.06978 14.9552 3.53449 16.4073 4.56742 19.2046C4.74854 19.696 5.14444 20.0778 5.64222 20.2408C6.55448 20.5384 8.19348 20.7312 9.99302 19.3375C9.99698 19.3435 12.5503 23.1524 16.4452 19.9559C16.4452 19.9582 17.6301 22.5643 21.822 21.2335C22.9191 20.8854 23.3483 20.3359 23.3846 19.7139C23.3846 19.7139 24.6991 21.0314 26.4464 19.4722C28.1938 17.913 27.495 16.5685 27.495 16.5685C27.495 16.5685 26.6885 14.6875 24.6991 14.7138C24.6991 14.7138 26.5276 13.4505 24.5917 10.2506C24.0689 9.26486 22.9522 8.74964 21.8629 8.99158C21.8629 8.99164 22.3603 5.89518 19.1085 2.34656V2.34656Z" fill="#B5FBF5"/>
<path d="M9.19814 18.8413C9.43014 18.7414 9.47753 18.3338 9.30397 17.9311C9.13042 17.5283 8.80165 17.2829 8.56965 17.3828C8.33765 17.4828 8.29026 17.8903 8.46381 18.2931C8.63736 18.6959 8.96613 18.9413 9.19814 18.8413Z" fill="#00FF57"/>
<path d="M21.7048 16.5527C21.9573 16.5527 22.162 16.1974 22.162 15.7591C22.162 15.3209 21.9573 14.9656 21.7048 14.9656C21.4524 14.9656 21.2477 15.3209 21.2477 15.7591C21.2477 16.1974 21.4524 16.5527 21.7048 16.5527Z" fill="#557BFF"/>
<path d="M12.1563 18.4096C12.5051 18.1445 12.6641 17.7666 12.5114 17.5657C12.3587 17.3647 11.952 17.4167 11.6032 17.6819C11.2543 17.947 11.0953 18.3249 11.2481 18.5258C11.4008 18.7268 11.8074 18.6748 12.1563 18.4096Z" fill="#FF00D6"/>
<path d="M17.671 16.6407C17.8533 16.466 17.7552 16.0679 17.4519 15.7515C17.1487 15.435 16.7551 15.3201 16.5728 15.4948C16.3905 15.6695 16.4886 16.0677 16.7919 16.3841C17.0952 16.7005 17.4888 16.8154 17.671 16.6407Z" fill="#00FF57"/>
<path d="M11.6788 16.0942C11.7128 15.6571 11.5363 15.2868 11.2845 15.2672C11.0327 15.2476 10.8009 15.5861 10.7669 16.0232C10.7329 16.4603 10.9094 16.8306 11.1612 16.8502C11.413 16.8698 11.6447 16.5313 11.6788 16.0942Z" fill="#FFA800"/>
<path d="M7.93391 17.2465C8.06518 17.0306 7.86784 16.6709 7.49313 16.443C7.11841 16.2151 6.70823 16.2053 6.57695 16.4212C6.44568 16.637 6.64302 16.9968 7.01774 17.2247C7.39245 17.4526 7.80263 17.4623 7.93391 17.2465Z" fill="#69B0EE"/>
<path d="M19.9115 19.5536C20.3498 19.5536 20.705 19.349 20.705 19.0965C20.705 18.8441 20.3498 18.6394 19.9115 18.6394C19.4732 18.6394 19.118 18.8441 19.118 19.0965C19.118 19.349 19.4732 19.5536 19.9115 19.5536Z" fill="#FFCE1E"/>
<path d="M15.6027 19.5238C15.815 19.3872 15.7948 18.9778 15.5576 18.6093C15.3205 18.2409 14.9562 18.0529 14.744 18.1896C14.5317 18.3262 14.5519 18.7356 14.7891 19.104C15.0262 19.4725 15.3905 19.6604 15.6027 19.5238Z" fill="#FF3D00"/>
<path d="M13.6531 15.6119C13.3526 15.2932 12.9601 15.1752 12.7765 15.3483C12.5929 15.5214 12.6878 15.9202 12.9883 16.2389C13.2889 16.5576 13.6814 16.6756 13.865 16.5024C14.0486 16.3293 13.9537 15.9306 13.6531 15.6119Z" fill="#557BFF"/>
<path d="M13.1662 18.4613L13.7219 17.9056C13.8084 17.8191 13.9486 17.8191 14.035 17.9055C14.1214 17.9919 14.1213 18.132 14.0349 18.2185L13.4791 18.7742C13.3927 18.8607 13.2525 18.8607 13.1661 18.7743C13.0797 18.6879 13.0797 18.5478 13.1662 18.4613Z" fill="#FFF503"/>
<path d="M17.2892 18.1219C17.4032 18.0778 17.5313 18.1344 17.5755 18.2484L17.8595 18.9812C17.9037 19.0953 17.8472 19.2235 17.7332 19.2677C17.6193 19.3118 17.4911 19.2552 17.4469 19.1412L17.163 18.4083C17.1187 18.2943 17.1753 18.1661 17.2892 18.1219Z" fill="#EF5261"/>
<path d="M19.5022 16.1485C19.5886 16.0621 19.7287 16.0622 19.8152 16.1486L20.371 16.7043C20.4574 16.7908 20.4575 16.931 20.3711 17.0174C20.2847 17.1038 20.1445 17.1037 20.058 17.0173L19.5023 16.4615C19.4159 16.375 19.4158 16.2349 19.5022 16.1485Z" fill="#EF5261"/>
<path d="M14.6155 16.4755H15.4014C15.5237 16.4755 15.6228 16.5745 15.6228 16.6967C15.6228 16.8189 15.5237 16.918 15.4014 16.918H14.6155C14.4932 16.918 14.3941 16.8189 14.3941 16.6967C14.3941 16.5745 14.4932 16.4755 14.6155 16.4755Z" fill="#0029FF"/>
<path d="M21.4724 17.8224L22.0281 17.2667C22.1146 17.1802 22.2548 17.1801 22.3412 17.2666C22.4276 17.353 22.4275 17.4931 22.341 17.5796L21.7853 18.1353C21.6989 18.2218 21.5587 18.2218 21.4723 18.1354C21.3858 18.049 21.3859 17.9089 21.4724 17.8224Z" fill="#FF949E"/>
<path d="M24.3668 16.0412C24.4532 15.9548 24.5934 15.9549 24.6799 16.0413L25.2356 16.597C25.3221 16.6835 25.3221 16.8237 25.2357 16.9101C25.1493 16.9965 25.0092 16.9964 24.9227 16.91L24.3669 16.3542C24.2805 16.2677 24.2804 16.1276 24.3668 16.0412V16.0412Z" fill="#EF5261"/>
<path d="M9.43431 15.8922L10.063 16.3638C10.1608 16.4372 10.1806 16.5759 10.1073 16.6737C10.034 16.7714 9.89525 16.7912 9.79742 16.7178L9.16875 16.2461C9.07092 16.1727 9.05109 16.034 9.12442 15.9363C9.19775 15.8385 9.33648 15.8188 9.43431 15.8922Z" fill="#0029FF"/>
<path d="M7.46582 15.072H8.25176C8.37406 15.072 8.47318 15.1711 8.47318 15.2933C8.47318 15.4155 8.37406 15.5145 8.25176 15.5145H7.46582C7.34352 15.5145 7.24441 15.4155 7.24441 15.2933C7.24441 15.1711 7.34352 15.072 7.46582 15.072Z" fill="#EF5261"/>
<path d="M23.8652 17.7876H24.6511C24.7734 17.7876 24.8725 17.8867 24.8725 18.0088C24.8725 18.131 24.7734 18.2301 24.6511 18.2301H23.8652C23.7429 18.2301 23.6438 18.131 23.6438 18.0088C23.6438 17.8867 23.7429 17.7876 23.8652 17.7876Z" fill="#EF5261"/>
<path d="M6.13472 17.7875H6.92066C7.04296 17.7875 7.14207 17.8865 7.14207 18.0087C7.14207 18.1309 7.04296 18.23 6.92066 18.23H6.13472C6.01242 18.23 5.9133 18.1309 5.9133 18.0087C5.9133 17.8865 6.01242 17.7875 6.13472 17.7875Z" fill="#EF5261"/>
<path d="M18.3477 17.5509C18.4372 17.4677 18.5773 17.4728 18.6605 17.5624L19.1957 18.138C19.2789 18.2275 19.2739 18.3676 19.1844 18.4508C19.0949 18.534 18.9548 18.5288 18.8716 18.4393L18.3364 17.8637C18.2532 17.7741 18.2582 17.6341 18.3477 17.5509Z" fill="#ECEF52"/>
</svg>
